<?xml version="1.0" encoding="UTF-8"?>
<svg version="1.1" xmlns="http://www.w3.org/2000/svg" width="512" height="512">
<path d="M0 0 C0.81577011 -0.00701431 1.63154022 -0.01402863 2.47203064 -0.02125549 C5.09208767 -0.03866622 7.71191848 -0.0451085 10.33203125 -0.046875 C11.67669464 -0.04788712 11.67669464 -0.04788712 13.04852295 -0.04891968 C26.63211253 -0.03267391 39.79738838 0.47835783 53.14453125 3.203125 C54.04187988 3.38004883 54.93922852 3.55697266 55.86376953 3.73925781 C85.56331731 9.70285697 118.30805542 19.68582188 141.76953125 39.62109375 C144.63357994 41.52888934 145.77307998 41.87434098 149.14453125 41.203125 C151.32298242 39.8157645 153.25666119 38.42328492 155.26953125 36.828125 C187.02446457 13.04813603 232.0992089 0.20889003 271.4296875 0 C272.71872231 -0.00855011 272.71872231 -0.00855011 274.03379822 -0.01727295 C275.84307653 -0.02665737 277.65237143 -0.03323058 279.46166992 -0.03710938 C282.17593639 -0.04676439 284.8894277 -0.07783017 287.60351562 -0.109375 C303.11461701 -0.20451124 318.18314499 -0.06096422 330.09765625 11.01953125 C337.00977484 18.20755374 339.47033547 25.41876418 339.39453125 35.328125 C339.33098232 37.62042561 339.25447737 39.91258087 339.14453125 42.203125 C340.11132812 42.16832031 341.078125 42.13351563 342.07421875 42.09765625 C353.96879992 41.85034318 363.10514224 42.90243875 372.14453125 51.203125 C378.2469179 57.22248598 381.79043716 63.79901633 382.27218175 72.51179856 C382.27342825 73.30948633 382.27467474 74.1071741 382.27595901 74.92903423 C382.27980016 75.85592231 382.2836413 76.7828104 382.28759885 77.737786 C382.28673237 78.74750189 382.28586588 79.75721778 382.28497314 80.79753113 C382.28942983 82.41656789 382.28942983 82.41656789 382.29397655 84.06831247 C382.30266066 87.69162694 382.30417156 91.31490836 382.30566406 94.93823242 C382.31029244 97.53354971 382.31531713 100.12886632 382.32070923 102.72418213 C382.33427811 109.78011586 382.34031507 116.83604391 382.34471989 123.89198852 C382.34748487 128.30011283 382.3517227 132.70823496 382.35622406 137.1163578 C382.36841506 149.32783336 382.37871456 161.53930718 382.38209915 173.75078869 C382.38231872 174.53201444 382.38253828 175.3132402 382.3827645 176.11813946 C382.38298278 176.90120559 382.38320106 177.68427171 382.38342595 178.49106711 C382.38386941 180.07778498 382.38431598 181.66450284 382.38476562 183.2512207 C382.38498705 184.03828301 382.38520848 184.82534531 382.38543662 185.63625798 C382.38938316 198.38443432 382.4068335 211.13255345 382.43012515 223.8807077 C382.45386053 236.97776028 382.466302 250.07478418 382.46746707 263.17185861 C382.46838262 270.52184784 382.47410473 277.87176253 382.49228668 285.22173119 C382.50933312 292.13690785 382.51092394 299.05194103 382.50214767 305.96713257 C382.50137717 308.50271801 382.50572173 311.03831104 382.51560593 313.57387733 C382.52832582 317.04068643 382.52244784 320.50699479 382.51202393 323.97380066 C382.52410853 325.47164409 382.52410853 325.47164409 382.53643727 326.99974698 C382.47807315 335.32437568 381.03159854 343.27977967 376.14453125 350.203125 C375.64953125 350.925 375.15453125 351.646875 374.64453125 352.390625 C373.14453125 354.203125 373.14453125 354.203125 370.14453125 356.203125 C371.79177463 360.47908618 375.01070978 363.30388277 378.21875 366.4375 C378.82080765 367.03435608 379.4228653 367.63121216 380.04316711 368.24615479 C381.9680904 370.15330065 383.89954472 372.05364566 385.83203125 373.953125 C388.36016216 376.44450517 390.88508744 378.93906823 393.40625 381.4375 C394.0086702 382.03437622 394.61109039 382.63125244 395.23176575 383.24621582 C398.92170485 386.92373088 402.47663832 390.66957675 405.82958984 394.66113281 C407.18263148 396.24780399 408.61615909 397.72097685 410.08203125 399.203125 C423.29507502 414.72489953 425.63641196 434.62219063 424.14453125 454.203125 C421.73904848 473.08215561 410.33237224 488.99883606 395.59301758 500.41040039 C380.43941435 511.59069095 363.45451661 514.2962648 345.02148438 511.93066406 C324.3289164 508.09830494 302.45323237 492.87942974 290.14453125 476.203125 C288.61075946 471.60180963 288.23978293 466.85533008 289.828125 462.19921875 C292.60099497 456.87208682 296.54613538 454.06925696 302.14453125 452.203125 C308.17604039 451.61180057 312.23709729 452.82688652 317.14453125 456.203125 C318.4069539 457.39811054 319.63470908 458.63041826 320.83203125 459.890625 C330.3930326 469.91938571 343.2280892 478.28136948 357.33203125 478.765625 C368.65568272 478.26842845 375.47284945 473.34422789 383.14453125 465.203125 C390.42178462 455.83451144 391.18889172 445.67989062 390.14453125 434.203125 C387.76331587 422.00938451 376.43236587 413.33907551 367.98046875 404.9765625 C367.14415924 404.14403961 366.30784973 403.31151672 365.44619751 402.45376587 C362.80642558 399.82607401 360.16341158 397.20168268 357.51953125 394.578125 C354.0243819 391.109734 350.53267357 387.63793049 347.04296875 384.1640625 C345.85989639 382.99343765 345.85989639 382.99343765 344.65292358 381.79916382 C340.47994303 377.64453218 336.47755615 373.41216497 332.65591431 368.93106079 C332.1571579 368.36084198 331.65840149 367.79062317 331.14453125 367.203125 C330.70644921 366.67992707 330.26836718 366.15672915 329.81700993 365.61767673 C327.69538474 363.82324513 326.625345 363.83230595 323.87348938 363.84236145 C323.00270752 363.83823746 322.13192566 363.83411346 321.23475647 363.8298645 C319.80624611 363.84604324 319.80624611 363.84604324 318.34887695 363.86254883 C317.34382111 363.86211075 316.33876526 363.86167267 315.30325317 363.86122131 C311.97540986 363.86331425 308.64806799 363.8866695 305.3203125 363.91015625 C303.01531754 363.9157504 300.71031901 363.92002135 298.40531921 363.92301941 C292.33399637 363.93448239 286.26288829 363.96396226 280.19165039 363.99713135 C273.99823919 364.02780082 267.80479335 364.04151807 261.61132812 364.05664062 C249.45563472 364.08883041 237.30010083 364.14004445 225.14453125 364.203125 C228.79004241 367.97332477 232.45250349 371.72594867 236.13085938 375.46411133 C237.37673302 376.73494754 238.61806126 378.01025805 239.85449219 379.2902832 C249.78174718 389.55833653 258.23304537 397.17427226 273.14453125 397.578125 C282.13660414 397.64282406 289.72688476 395.07086395 296.76953125 389.453125 C300.8277275 386.32534448 305.12263854 385.94393054 310.14453125 386.203125 C315.36708606 387.59580628 318.68647186 389.99380004 321.9765625 394.18359375 C324.42655973 398.41987659 324.60625526 402.59462235 323.765625 407.34375 C322.07192948 412.92548869 318.83559902 415.93629033 314.14453125 419.203125 C313.07912109 419.95916016 313.07912109 419.95916016 311.9921875 420.73046875 C296.60006475 430.79553404 276.92008485 433.82708929 258.921875 430.5546875 C242.70399626 426.56416844 227.78247748 418.68036336 218.9289856 404.14038086 C218.36848102 403.21119843 217.80797644 402.28201599 217.23048687 401.32467651 C207.19842153 385.06535075 193.52519085 368.62771861 174.32351971 363.44113922 C139.99555986 356.11449222 102.62958536 359.5987343 67.69011557 360.79924393 C57.8333509 361.1349048 47.97802747 361.37145905 38.11694336 361.53564453 C37.06953604 361.5531384 37.06953604 361.5531384 36.00096899 361.57098567 C31.105526 361.65175087 26.21000788 361.72714128 21.31445312 361.80078125 C15.87697655 361.88264126 10.43951739 361.9654379 5.00209045 362.05053711 C3.68514193 362.07096353 2.3681934 362.09138994 1.01133734 362.11243534 C-6.76737765 362.24026645 -14.54247888 362.42205209 -22.31871998 362.65593243 C-27.14051549 362.80020012 -31.96271313 362.92649903 -36.78503227 363.05186272 C-39.01049193 363.11524335 -41.23570956 363.18794988 -43.46052551 363.27090645 C-57.30675215 363.78572012 -68.49494725 364.20035562 -79.35546875 354.390625 C-84.44671083 348.80190188 -87.97298616 342.2693736 -87.98968983 334.61398983 C-87.99637659 333.1930552 -87.99637659 333.1930552 -88.00319844 331.74341482 C-88.00301408 330.7006366 -88.00282972 329.65785839 -88.00263977 328.58348083 C-88.00631646 327.47724698 -88.00999315 326.37101312 -88.01378125 325.23125702 C-88.02484034 321.5049968 -88.02866573 317.77876443 -88.0324707 314.05249023 C-88.03873372 311.38850233 -88.04536746 308.72451743 -88.05238342 306.06053162 C-88.07214801 298.05128586 -88.08221492 290.04203883 -88.09111121 282.03277478 C-88.09549491 278.25997323 -88.10086158 274.48717308 -88.10610008 270.71437263 C-88.12311384 258.17013942 -88.13760694 245.62590707 -88.14484882 233.08166409 C-88.14675869 229.82617123 -88.14867902 226.57067838 -88.15063477 223.31518555 C-88.15111851 222.50605794 -88.15160225 221.69693033 -88.15210065 220.8632837 C-88.16039693 207.76253718 -88.18572637 194.66188208 -88.21821544 181.56117546 C-88.25130838 168.10710272 -88.26929968 154.6530764 -88.27249306 141.19896275 C-88.27465631 133.64659111 -88.28337743 126.09435273 -88.30895424 118.5420208 C-88.33069198 112.10844151 -88.3386967 105.67502782 -88.32898746 99.24141597 C-88.32445128 95.9611016 -88.32848341 92.68119901 -88.3457489 89.40091705 C-88.36345263 85.83754272 -88.35636788 82.27502983 -88.34321594 78.71165466 C-88.35418519 77.6844915 -88.36515443 76.65732834 -88.37645608 75.59903902 C-88.29221614 66.12014558 -85.61006886 58.02675672 -79.05078125 51.02734375 C-71.12122631 44.438194 -62.6332267 42.04632352 -52.54296875 42.140625 C-51.28871094 42.14964844 -50.03445312 42.15867188 -48.7421875 42.16796875 C-47.78957031 42.17957031 -46.83695313 42.19117188 -45.85546875 42.203125 C-45.90767578 40.96949219 -45.90767578 40.96949219 -45.9609375 39.7109375 C-46.23856599 28.26206718 -44.68929164 19.81661747 -36.85546875 11.203125 C-36.35273437 10.64625 -35.85 10.089375 -35.33203125 9.515625 C-26.09827888 0.5070861 -12.18126783 0.07057925 0 0 Z " fill="#2196F2" transform="translate(87.85546875,-0.203125)"/>
<path d="M0 0 C0.81577011 -0.00701431 1.63154022 -0.01402863 2.47203064 -0.02125549 C5.09208767 -0.03866622 7.71191848 -0.0451085 10.33203125 -0.046875 C11.67669464 -0.04788712 11.67669464 -0.04788712 13.04852295 -0.04891968 C26.63211253 -0.03267391 39.79738838 0.47835783 53.14453125 3.203125 C54.04187988 3.38004883 54.93922852 3.55697266 55.86376953 3.73925781 C71.99709416 6.97879135 87.70561424 11.4434793 102.95703125 17.640625 C103.57747314 17.89247559 104.19791504 18.14432617 104.8371582 18.40380859 C111.79490119 21.3329114 118.35834233 24.81003054 125.14453125 28.203125 C125.14453125 133.803125 125.14453125 239.403125 125.14453125 348.203125 C121.03905072 346.56093279 117.768454 344.84554575 114.01953125 342.578125 C78.795274 322.00428909 38.29757684 315.50755959 -1.88427734 316.39501953 C-4.83303108 316.45568561 -7.78128819 316.49099752 -10.73046875 316.5234375 C-12.05727661 316.56381638 -12.05727661 316.56381638 -13.41088867 316.60501099 C-22.61466813 316.6785807 -29.40688355 313.27097933 -36.06640625 307.0625 C-43.53410845 299.30130732 -45.15294482 292.16288757 -45.15412903 281.56439209 C-45.16203813 280.49234693 -45.16994723 279.42030177 -45.178096 278.31577039 C-45.20212682 274.72319643 -45.21202131 271.13072458 -45.22192383 267.53808594 C-45.2361334 264.96232148 -45.25116837 262.38656147 -45.26696777 259.81080627 C-45.30368794 253.53976214 -45.32957829 247.26871831 -45.35135791 240.99760619 C-45.36918117 235.89818042 -45.39047388 230.7987805 -45.41422081 225.69937897 C-45.41759136 224.97315913 -45.42096191 224.24693929 -45.4244346 223.49871279 C-45.43128388 222.0232883 -45.43813501 220.54786382 -45.44498798 219.07243934 C-45.50871464 205.23795109 -45.55949881 191.40343729 -45.6064085 177.56888333 C-45.64969443 164.9241784 -45.70945913 152.27961419 -45.77700356 139.6350176 C-45.84625517 126.64193355 -45.90420368 113.64884353 -45.95004195 100.65565515 C-45.97596517 93.36490425 -46.00634145 86.07423798 -46.04859352 78.78356171 C-46.08820837 71.92504882 -46.11190281 65.06663531 -46.12497711 58.20802116 C-46.13221997 55.69338109 -46.14462627 53.17874967 -46.16262627 50.66416359 C-46.18641302 47.22591097 -46.19137865 43.78811613 -46.19172668 40.34979248 C-46.20299192 39.35969421 -46.21425715 38.36959594 -46.22586375 37.3494947 C-46.18482294 27.07213371 -43.83367606 18.87584583 -36.85546875 11.203125 C-36.35273437 10.64625 -35.85 10.089375 -35.33203125 9.515625 C-26.09827888 0.5070861 -12.18126783 0.07057925 0 0 Z " fill="#CED7DB" transform="translate(87.85546875,-0.203125)"/>
<path d="M0 0 C0.87532379 -0.00794586 1.75064758 -0.01589172 2.65249634 -0.02407837 C34.77764503 -0.24804012 34.77764503 -0.24804012 47.078125 11.19140625 C54.66064013 19.0765848 56.72987854 27.77232339 56.63293457 38.45005798 C56.63917453 39.52073173 56.6454145 40.59140547 56.65184355 41.69452387 C56.6677148 45.25873584 56.65519171 48.82225836 56.64257812 52.38647461 C56.64800185 54.95135393 56.65512591 57.51623014 56.66381836 60.08110046 C56.68013695 66.31059492 56.67778624 72.53983684 56.6661678 78.76933449 C56.65711286 83.83528388 56.65591835 88.9011793 56.66026306 93.96713448 C56.66087599 94.68974827 56.66148893 95.41236206 56.66212043 96.15687324 C56.66339941 97.62512888 56.66469627 99.09338449 56.6660108 100.56164009 C56.67740194 114.31183814 56.66432638 128.06192932 56.64280933 141.81210984 C56.62494346 153.59346203 56.62804104 165.37465652 56.64648438 177.15600586 C56.66792361 190.8573955 56.67629946 204.55869158 56.66403532 218.26009566 C56.66276121 219.72308034 56.66150372 221.18606504 56.66026306 222.64904976 C56.65933741 223.72859853 56.65933741 223.72859853 56.65839306 224.82995636 C56.65494901 229.88542395 56.6607481 234.94083186 56.67018127 239.99629021 C56.68261615 246.80982744 56.67367595 253.62306299 56.65060425 260.43657112 C56.64532799 262.93303052 56.64681228 265.42951504 56.65565491 267.92596436 C56.66663643 271.34196316 56.65281394 274.75701912 56.63293457 278.17295837 C56.64185746 279.15352437 56.65078034 280.13409037 56.65997362 281.1443705 C56.54389451 291.47570232 53.29694535 300.81030526 46.125 308.375 C43.83130422 310.50123569 41.90030834 311.8107353 39.125 313.375 C33.79428845 312.84738691 28.77733652 310.48213955 23.79296875 308.62890625 C17.04150542 306.32089802 11.02294208 305.0283392 3.875 305.125 C2.76366699 305.13623901 2.76366699 305.13623901 1.62988281 305.14770508 C-12.07839647 305.41338091 -24.3427556 308.47283006 -35.75 316.3125 C-42.41875859 320.61103716 -49.16370166 322.26965544 -56.83862305 324.0703125 C-64.94634057 326.00648385 -72.53702022 328.71455576 -80.22460938 331.92382812 C-81.04123047 332.25705078 -81.85785156 332.59027344 -82.69921875 332.93359375 C-83.41166748 333.23579834 -84.12411621 333.53800293 -84.8581543 333.84936523 C-87.34527538 334.49756421 -88.49729578 334.34261617 -90.875 333.375 C-101.62699388 325.05677447 -114.06675682 313.05650383 -116.22412109 299.11962891 C-117.36640411 288.36911391 -116.21156352 279.40916928 -109.875 270.375 C-109.34519531 269.61832031 -108.81539063 268.86164063 -108.26953125 268.08203125 C-102.80485098 261.1635643 -94.0775751 255.24153623 -85.21875 254.00390625 C-69.78929491 253.64360304 -57.07287436 261.57263712 -46.203125 271.91796875 C-44.71515597 273.44837985 -43.23162494 274.98312667 -41.75390625 276.5234375 C-38.16262179 280.06245795 -34.83177225 281.49700784 -29.875 281.75 C-25.94246459 281.57738871 -23.19656781 280.56421515 -19.875 278.375 C-15.24843601 273.24826693 -14.45047425 269.98612502 -14.5390625 263.19140625 C-15.33301217 256.53515377 -20.47646842 252.43029372 -25.39453125 248.32421875 C-45.1562437 232.79493606 -66.10630286 222.27754791 -91.875 224.375 C-98.43870026 225.43471548 -104.53946616 227.75060533 -110.58178711 230.45410156 C-111.38724472 230.81393127 -112.19270233 231.17376099 -113.02256775 231.54449463 C-113.93952171 231.95559479 -113.93952171 231.95559479 -114.875 232.375 C-115.10852311 206.01093464 -115.28490513 179.64702409 -115.39312172 153.2821331 C-115.44470265 141.0406018 -115.5150336 128.7997128 -115.62939453 116.55859375 C-115.72901568 105.89013183 -115.79356985 95.22213499 -115.81588495 84.55322087 C-115.82893129 78.90294587 -115.85962259 73.25400147 -115.93230057 67.60415268 C-116.00014952 62.28665237 -116.02112283 56.97103116 -116.00607681 51.65313911 C-116.00882938 49.70113602 -116.02874299 47.74907052 -116.06705475 45.79744148 C-116.342726 31.03097079 -116.342726 31.03097079 -112.70014572 26.92120743 C-110.11325047 25.33294044 -107.75382963 24.30998685 -104.875 23.375 C-103.65661272 22.77799032 -102.44466504 22.16750176 -101.2421875 21.5390625 C-82.47028342 13.2659862 -63.01752292 7.22802755 -42.875 3.375 C-42.07143066 3.21128906 -41.26786133 3.04757812 -40.43994141 2.87890625 C-27.04525616 0.22898691 -13.60462654 0.06511715 0 0 Z " fill="#CED7DB" transform="translate(370.875,-0.375)"/>
<path d="M0 0 C4.43266346 1.77306538 7.9125316 3.83315449 11.75 6.5625 C12.33910156 6.97435547 12.92820313 7.38621094 13.53515625 7.81054688 C17.81928692 10.81928692 17.81928692 10.81928692 19 12 C22.75795965 12.64935332 24.08836645 11.94456642 27.375 9.8828125 C28.59214733 8.97524395 29.80031302 8.05552644 31 7.125 C32.20464017 6.20607576 33.41290635 5.29188273 34.625 4.3828125 C35.15351563 3.97434082 35.68203125 3.56586914 36.2265625 3.14501953 C38.37799604 1.75594694 40.61775912 0.92574742 43 0 C43.30392993 26.27755512 43.53304682 52.55484617 43.67355824 78.83380604 C43.74054021 91.03620535 43.83182699 103.23751146 43.98071289 115.43920898 C44.11044885 126.07659241 44.19419416 136.71318405 44.22315043 147.35133666 C44.24007321 152.9826208 44.27972244 158.61164025 44.37449074 164.24219704 C44.46306116 169.54774441 44.48988916 174.850106 44.47039986 180.15632248 C44.4739622 182.09823522 44.49963913 184.04025977 44.54967117 185.98153114 C44.92743778 201.4018212 44.92743778 201.4018212 40.14069176 206.53558922 C36.99329587 209.39924101 33.5501883 211.66677742 30 214 C18.91753299 224.30546971 11.2751579 239.76474908 10.6953125 254.8359375 C10.48502111 266.68658263 10.978741 277.19952388 15.1875 288.375 C15.55230469 289.37273437 15.91710937 290.37046875 16.29296875 291.3984375 C21.81785259 303.05505741 29.79850005 311.2753521 38.9375 320.125 C40.81904353 321.96400512 42.69767824 323.8058978 44.57411194 325.65011597 C45.73350082 326.78781371 46.8963556 327.92199234 48.06297302 329.05227661 C49.39367489 330.34961552 50.69969025 331.67220097 52 333 C52 333.33 52 333.66 52 334 C21.62972752 334.11418797 -8.74052268 334.20261274 -39.11096092 334.25532665 C-42.7006019 334.2615798 -46.29024246 334.26805145 -49.87988281 334.2746582 C-50.59448263 334.27596976 -51.30908245 334.27728131 -52.04533681 334.2786326 C-63.59944569 334.30035906 -75.15342954 334.33976523 -86.70746437 334.38576398 C-98.57264472 334.4326057 -110.43775981 334.46031165 -122.30302882 334.47044247 C-128.96352634 334.47667333 -135.62379637 334.49222129 -142.28421783 334.52865028 C-148.55837073 334.56268729 -154.83212493 334.57303714 -161.10636139 334.56553841 C-163.4040748 334.56690948 -165.70180209 334.57679544 -167.99943542 334.59602737 C-193.85537914 334.80176218 -193.85537914 334.80176218 -204.5 325.1875 C-209.59124208 319.59877688 -213.11751741 313.0662486 -213.13422108 305.41086483 C-213.14090784 303.9899302 -213.14090784 303.9899302 -213.14772969 302.54028982 C-213.14754533 301.4975116 -213.14736097 300.45473339 -213.14717102 299.38035583 C-213.15084771 298.27412198 -213.1545244 297.16788812 -213.1583125 296.02813202 C-213.16937159 292.3018718 -213.17319698 288.57563943 -213.17700195 284.84936523 C-213.18326497 282.18537733 -213.18989871 279.52139243 -213.19691467 276.85740662 C-213.21667926 268.84816086 -213.22674617 260.83891383 -213.23564246 252.82964978 C-213.24002616 249.05684823 -213.24539283 245.28404808 -213.25063133 241.51124763 C-213.26764509 228.96701442 -213.28213819 216.42278207 -213.28938007 203.87853909 C-213.29128994 200.62304623 -213.29321027 197.36755338 -213.29516602 194.11206055 C-213.29564976 193.30293294 -213.2961335 192.49380533 -213.2966319 191.6601587 C-213.30492818 178.55941218 -213.33025762 165.45875708 -213.36274669 152.35805046 C-213.39583963 138.90397772 -213.41383093 125.4499514 -213.41702431 111.99583775 C-213.41918756 104.44346611 -213.42790868 96.89122773 -213.45348549 89.3388958 C-213.47522323 82.90531651 -213.48322795 76.47190282 -213.47351871 70.03829097 C-213.46898253 66.7579766 -213.47301466 63.47807401 -213.49028015 60.19779205 C-213.50798388 56.63441772 -213.50089913 53.07190483 -213.48774719 49.50852966 C-213.49871644 48.4813665 -213.50968568 47.45420334 -213.52098733 46.39591402 C-213.43674739 36.91702058 -210.75460011 28.82363172 -204.1953125 21.82421875 C-196.11332823 15.1084062 -187.45293122 12.80979607 -177.1875 12.9375 C-176.49462891 12.94201172 -175.80175781 12.94652344 -175.08789062 12.95117188 C-173.39188932 12.96286844 -171.69593297 12.98080076 -170 13 C-169.99853344 14.28013694 -169.99706688 15.56027388 -169.99555588 16.87920284 C-169.95983756 47.28153038 -169.90357286 77.68374293 -169.82207905 108.08597961 C-169.81206185 111.8296989 -169.80221767 115.57341864 -169.79248047 119.31713867 C-169.7905391 120.06243157 -169.78859772 120.80772447 -169.78659752 121.575602 C-169.75559432 133.63605584 -169.73860157 145.69649066 -169.72680578 157.75697684 C-169.7143855 170.13636034 -169.68686433 182.51564418 -169.64538693 194.89496475 C-169.62027656 202.53088832 -169.60688092 210.16664657 -169.60857043 217.80261201 C-169.60860376 223.66238445 -169.58760541 229.52196444 -169.55883217 235.38167 C-169.55031982 237.78219798 -169.54859225 240.1827612 -169.55419731 242.58329773 C-169.56083825 245.86481318 -169.54291276 249.14532783 -169.51898193 252.42674255 C-169.52674235 253.37326405 -169.53450277 254.31978556 -169.54249835 255.29498953 C-169.42200211 264.65008046 -166.12447557 271.48683644 -159.79296875 278.27734375 C-153.66706441 284.16301654 -147.51616404 286.25709046 -139.19996643 286.1245575 C-138.33862595 286.1015004 -137.47728546 286.0784433 -136.58984375 286.0546875 C-134.70753644 286.02581301 -132.82521089 285.99810848 -130.94287109 285.97143555 C-129.96211609 285.95478851 -128.98136108 285.93814148 -127.97088623 285.92098999 C-81.22697694 285.21229292 -40.48465696 295.18549591 0 319 C0 213.73 0 108.46 0 0 Z " fill="#607D8B" transform="translate(213,29)"/>
<path d="M0 0 C2.38681708 -0.03054945 4.77323689 -0.05277697 7.16015625 -0.0703125 C7.83002563 -0.07973877 8.49989502 -0.08916504 9.19006348 -0.09887695 C19.86456534 -0.15758182 27.20691314 3.28573065 34.72265625 10.69921875 C40.53105176 17.04992146 43.11795003 24.10092306 43.13142776 32.72590923 C43.13526891 33.65279731 43.13911005 34.5796854 43.1430676 35.534661 C43.14220112 36.54437689 43.14133463 37.55409278 43.14044189 38.59440613 C43.14341302 39.67376397 43.14638414 40.75312181 43.1494453 41.86518747 C43.15812941 45.48850194 43.15964031 49.11178336 43.16113281 52.73510742 C43.16576119 55.33042471 43.17078588 57.92574132 43.17617798 60.52105713 C43.18974686 67.57699086 43.19578382 74.63291891 43.20018864 81.68886352 C43.20295362 86.09698783 43.20719145 90.50510996 43.21169281 94.9132328 C43.22388381 107.12470836 43.23418331 119.33618218 43.2375679 131.54766369 C43.23789725 132.71950232 43.23789725 132.71950232 43.23823325 133.91501446 C43.23856067 135.08961365 43.23856067 135.08961365 43.2388947 136.28794211 C43.23933816 137.87465998 43.23978473 139.46137784 43.24023438 141.0480957 C43.2404558 141.83515801 43.24067723 142.62222031 43.24090537 143.43313298 C43.24485191 156.18130932 43.26230225 168.92942845 43.2855939 181.6775827 C43.30932928 194.77463528 43.32177075 207.87165918 43.32293582 220.96873361 C43.32385137 228.31872284 43.32957348 235.66863753 43.34775543 243.01860619 C43.36480187 249.93378285 43.36639269 256.84881603 43.35761642 263.76400757 C43.35684592 266.29959301 43.36119048 268.83518604 43.37107468 271.37075233 C43.38379457 274.83756143 43.37791659 278.30386979 43.36749268 281.77067566 C43.37554908 282.76923794 43.38360548 283.76780023 43.39190602 284.79662198 C43.33387361 293.07393821 41.90537115 301.03929893 37.0625 307.9375 C36.57910156 308.64777344 36.09570312 309.35804688 35.59765625 310.08984375 C33.91324073 312.1037293 32.15595628 313.51457872 30 315 C27.01961267 313.6630242 24.96795083 312.2038341 22.69116211 309.87060547 C22.06628403 309.23589325 21.44140594 308.60118103 20.79759216 307.94723511 C20.13091019 307.2608194 19.46422821 306.57440369 18.77734375 305.8671875 C17.33672126 304.40611912 15.89596151 302.94518608 14.45507812 301.484375 C12.20373117 299.1898221 9.95493 296.89285205 7.70922852 294.59277344 C-4.28781254 282.29049333 -4.28781254 282.29049333 -18 272 C-15.59829722 269.52967714 -13.32822292 267.22975605 -10.5 265.25 C-4.80814285 260.12732857 -1.44589521 252.34116663 -0.81095195 244.73548329 C-0.73239909 242.0823073 -0.71606777 239.43548943 -0.7215271 236.78114319 C-0.7157347 235.76652478 -0.7099423 234.75190637 -0.70397437 233.70654196 C-0.68700132 230.31482692 -0.68410014 226.92324818 -0.68115234 223.53149414 C-0.67185232 221.09699165 -0.66168354 218.66249235 -0.65071106 216.22799683 C-0.62905934 210.99083492 -0.61344017 205.75369209 -0.60334396 200.51649666 C-0.58873621 192.94446762 -0.56319354 185.37250626 -0.53501268 177.80051702 C-0.48958273 165.51440885 -0.45295225 153.22829091 -0.421875 140.94213867 C-0.39167389 129.00982957 -0.35731645 117.07754434 -0.31738281 105.14526367 C-0.31369049 104.04134041 -0.31369049 104.04134041 -0.30992357 102.91511566 C-0.29754867 99.22294427 -0.28509219 95.53077316 -0.27259517 91.83860219 C-0.16908425 61.22576748 -0.0800092 30.61290568 0 0 Z " fill="#607D8B" transform="translate(427,42)"/>
<path d="M0 0 C20.3232473 -0.8798972 38.23791158 6.63955033 53.26171875 20.2265625 C58.78382152 25.47279954 64.10613194 30.92438575 69.44921875 36.3515625 C71.57348202 38.50367782 73.69930439 40.6541952 75.82820129 42.80172729 C77.14122442 44.12676766 78.45157265 45.45446677 79.7585907 46.78543091 C83.48977052 50.55691808 87.3519429 54.09641239 91.36735535 57.56274414 C94.10786167 59.96972937 96.69270659 62.51396812 99.265625 65.09765625 C99.79260483 65.62367935 100.31958466 66.14970245 100.86253357 66.69166565 C101.96353776 67.79199671 103.06331 68.89356182 104.16186523 69.99633789 C105.82099195 71.66082527 107.48539926 73.31989697 109.15039062 74.97851562 C114.23040924 80.05564202 119.23538613 85.14034399 123.88085938 90.62524414 C125.26123859 92.22600569 126.71373775 93.72371054 128.19921875 95.2265625 C141.41226252 110.74833703 143.75359946 130.64562813 142.26171875 150.2265625 C139.85623598 169.10559311 128.44955974 185.02227356 113.71020508 196.43383789 C98.55660185 207.61412845 81.57170411 210.3197023 63.13867188 207.95410156 C42.4461039 204.12174244 20.57041987 188.90286724 8.26171875 172.2265625 C6.72794696 167.62524713 6.35697043 162.87876758 7.9453125 158.22265625 C10.71818247 152.89552432 14.66332288 150.09269446 20.26171875 148.2265625 C26.29322789 147.63523807 30.35428479 148.85032402 35.26171875 152.2265625 C36.5241414 153.42154804 37.75189658 154.65385576 38.94921875 155.9140625 C48.5102201 165.94282321 61.3452767 174.30480698 75.44921875 174.7890625 C86.77287022 174.29186595 93.59003695 169.36766539 101.26171875 161.2265625 C108.53897212 151.85794894 109.30607922 141.70332812 108.26171875 130.2265625 C105.88050337 118.03282201 94.54955337 109.36251301 86.09765625 101 C85.26134674 100.16747711 84.42503723 99.33495422 83.56338501 98.47720337 C80.92361308 95.84951151 78.28059908 93.22512018 75.63671875 90.6015625 C72.1415694 87.1331715 68.64986107 83.66136799 65.16015625 80.1875 C64.37144135 79.40708344 63.58272644 78.62666687 62.77011108 77.82260132 C58.60046325 73.67128775 54.59989695 69.44240149 50.77920532 64.96670532 C48.40874341 62.24843265 45.84350004 59.74205655 43.26171875 57.2265625 C39.85962642 53.88502436 36.6057264 50.54025014 33.57421875 46.8515625 C27.79226374 40.06834211 19.09793593 34.62757607 10.26171875 33.2265625 C-1.53501062 32.45362964 -10.3883668 33.16120796 -20.11328125 40.4765625 C-24.61770797 43.59378524 -28.42765787 44.16029486 -33.859375 43.8828125 C-38.74440551 42.76926416 -41.66116601 40.06892891 -44.73828125 36.2265625 C-47.09311498 32.30183962 -47.13519997 28.75143596 -46.73828125 24.2265625 C-42.97648867 14.32710835 -33.78171945 9.64166014 -24.73828125 5.2265625 C-16.42533472 1.74626192 -8.88944516 0.53875425 0 0 Z " fill="#2196F2" transform="translate(369.73828125,303.7734375)"/>
<path d="M0 0 C4.35972582 1.64765713 7.96712236 3.87198141 11.75 6.5625 C12.33910156 6.97435547 12.92820313 7.38621094 13.53515625 7.81054688 C17.81928692 10.81928692 17.81928692 10.81928692 19 12 C22.75795965 12.64935332 24.08836645 11.94456642 27.375 9.8828125 C28.59214733 8.97524395 29.80031302 8.05552644 31 7.125 C32.20464017 6.20607576 33.41290635 5.29188273 34.625 4.3828125 C35.15351563 3.97434082 35.68203125 3.56586914 36.2265625 3.14501953 C38.37799604 1.75594694 40.61775912 0.92574742 43 0 C43.30392993 26.27755512 43.53304682 52.55484617 43.67355824 78.83380604 C43.74054021 91.03620535 43.83182699 103.23751146 43.98071289 115.43920898 C44.11044885 126.07659241 44.19419416 136.71318405 44.22315043 147.35133666 C44.24007321 152.9826208 44.27972244 158.61164025 44.37449074 164.24219704 C44.46306116 169.54774441 44.48988916 174.850106 44.47039986 180.15632248 C44.4739622 182.09823522 44.49963913 184.04025977 44.54967117 185.98153114 C44.92743778 201.4018212 44.92743778 201.4018212 40.14069176 206.53558922 C36.99329587 209.39924101 33.5501883 211.66677742 30 214 C18.91753299 224.30546971 11.2751579 239.76474908 10.6953125 254.8359375 C10.48502111 266.68658263 10.978741 277.19952388 15.1875 288.375 C15.55230469 289.37273437 15.91710937 290.37046875 16.29296875 291.3984375 C21.81785259 303.05505741 29.79850005 311.2753521 38.9375 320.125 C40.81904353 321.96400512 42.69767824 323.8058978 44.57411194 325.65011597 C45.73350082 326.78781371 46.8963556 327.92199234 48.06297302 329.05227661 C49.39367489 330.34961552 50.69969025 331.67220097 52 333 C52 333.33 52 333.66 52 334 C17.63243845 336.28258668 17.63243845 336.28258668 8.0625 328.1875 C5.8738196 326.21209357 3.96860196 324.21134687 2 322 C1.45871482 321.55518302 0.91742963 321.11036603 0.35974187 320.65206975 C-1.5722205 318.30475908 -1.36653679 316.66384373 -1.35352612 313.64891529 C-1.35601587 312.53173896 -1.35850561 311.41456262 -1.36107081 310.26353246 C-1.34844134 309.03105848 -1.33581187 307.7985845 -1.32279968 306.52876282 C-1.3212794 305.22354634 -1.31975913 303.91832986 -1.31819278 302.57356137 C-1.3135589 298.943095 -1.29009935 295.31295351 -1.26365387 291.68258941 C-1.23842392 287.77057414 -1.2305268 283.85852017 -1.22055054 279.94644165 C-1.20087508 273.16599744 -1.17015866 266.38567482 -1.13199425 259.60531044 C-1.07683052 249.80199265 -1.03823872 239.99866508 -1.003723 230.19525542 C-0.94727546 214.29083544 -0.87738042 198.386504 -0.79907227 182.48217773 C-0.72302092 167.03037925 -0.65327576 151.57857359 -0.59204102 136.12670898 C-0.58826585 135.17464557 -0.58449068 134.22258215 -0.58060112 133.24166832 C-0.56170168 128.4655619 -0.54292653 123.689455 -0.52421319 118.91334784 C-0.36874653 79.27547233 -0.1914743 39.63771696 0 0 Z " fill="#90A4AE" transform="translate(213,29)"/>
<path d="M0 0 C-0.433125 0.74443359 -0.433125 0.74443359 -0.875 1.50390625 C-3.42838031 6.17623758 -4.70599437 9.55375768 -4 15 C-2.26968342 19.80643495 0.29238313 23.77644183 5 26 C11.46566988 27.46594017 16.49865783 26.65840709 22.18725586 23.2253418 C23.81174502 22.16623972 25.40293681 21.05659306 26.9921875 19.9453125 C32.45246495 16.41386033 37.40028433 15.63487834 43.8125 15.6875 C44.51955078 15.69241455 45.22660156 15.6973291 45.95507812 15.70239258 C59.96703868 16.01602117 69.29734968 23.51786446 79 33 C85.39382239 39.78764479 85.39382239 39.78764479 87 43 C73.79630701 43.65506003 60.59659727 44.1492761 47.37984085 44.45074081 C41.23835549 44.59561997 35.10813774 44.79112358 28.97314453 45.11230469 C-15.57065693 47.38551995 -15.57065693 47.38551995 -29.73257828 34.77858353 C-35.91430343 28.7989326 -41.20878214 22.12635278 -46 15 C-43.73640224 12.73640224 -42.06178296 12.10654627 -39.08203125 10.9765625 C-38.08147705 10.59685303 -37.08092285 10.21714355 -36.05004883 9.82592773 C-34.44746216 9.23146851 -34.44746216 9.23146851 -32.8125 8.625 C-31.72928467 8.221604 -30.64606934 7.81820801 -29.5300293 7.40258789 C-8.37827883 -0.35751468 -8.37827883 -0.35751468 0 0 Z " fill="#5F7D8B" transform="translate(328,320)"/>
<path d="M0 0 C1.06816445 0.86807601 2.12918085 1.74494783 3.1875 2.625 C3.77917969 3.11226563 4.37085938 3.59953125 4.98046875 4.1015625 C7.54686166 6.51407112 9.74508093 9.29409712 12 12 C3.09 12 -5.82 12 -15 12 C-10 8 -5 4 0 0 Z " fill="#5E7D8D" transform="translate(253,351)"/>
</svg>
